<svg viewBox="0 0 71 41" fill="none" xmlns="http://www.w3.org/2000/svg">
 <path d="M59.5 20.66C59.5 18.96 59.47 17.74 59.41 17H63.46C63.54 17.78 63.58 18.66 63.58 19.64V19.94H63.7C64.08 18.96 64.76 18.18 65.74 17.6C66.74 17 67.88 16.7 69.16 16.7C69.42 16.7 69.73 16.73 70.09 16.79V20.12C70.05 20.1 69.85 20.09 69.49 20.09C68.47 20.09 67.52 20.35 66.64 20.87C65.76 21.39 65.06 22.08 64.54 22.94C64.02 23.8 63.76 24.73 63.76 25.73V32H59.5V20.66Z" fill="black"/>
 <path d="M36 10H40.26V18.85C40.72 18.27 41.35 17.81 42.15 17.47C42.97 17.13 43.85 16.96 44.79 16.96C45.89 16.96 46.87 17.21 47.73 17.71C48.59 18.19 49.26 18.9 49.74 19.84C50.22 20.76 50.46 21.85 50.46 23.11V32.26H46.2V23.5C46.2 22.46 45.96 21.64 45.48 21.04C45.02 20.42 44.38 20.11 43.56 20.11C42.54 20.11 41.73 20.47 41.13 21.19C40.55 21.89 40.26 22.86 40.26 24.1V32.26H36V10Z" fill="black"/>
 <path d="M35.45 18V32.37C35.45 34.93 34.8 36.86 33.5 38.16C32.22 39.48 30.31 40.14 27.77 40.14C26.55 40.14 25.41 39.99 24.35 39.69C23.29 39.41 22.36 39 21.56 38.46L22.97 35.61C23.67 35.97 24.43 36.26 25.25 36.48C26.09 36.7 26.86 36.81 27.56 36.81C28.84 36.81 29.79 36.39 30.41 35.55C31.03 34.73 31.34 33.48 31.34 31.8V31.59C30.5 32.55 29.18 33.03 27.38 33.03C25.26 33.03 23.62 32.37 22.46 31.05C21.32 29.71 20.75 27.8 20.75 25.32C20.75 22.88 21.3 21 22.4 19.68C23.5 18.36 25.05 17.7 27.05 17.7C29.11 17.7 30.61 18.4 31.55 19.8H31.61L31.88 18H35.45ZM31.19 24.6C31.19 23.36 30.94 22.43 30.44 21.81C29.94 21.17 29.2 20.85 28.22 20.85C27.16 20.85 26.35 21.24 25.79 22.02C25.25 22.78 24.98 23.91 24.98 25.41C24.98 28.33 26.05 29.79 28.19 29.79C29.17 29.79 29.91 29.5 30.41 28.92C30.93 28.34 31.19 27.5 31.19 26.4V24.6Z" fill="black"/>
 <path d="M18.23 15.56C17.43 15.56 16.78 15.34 16.28 14.9C15.8 14.46 15.56 13.87 15.56 13.13C15.56 12.39 15.8 11.8 16.28 11.36C16.78 10.92 17.43 10.7 18.23 10.7C19.03 10.7 19.67 10.92 20.15 11.36C20.65 11.8 20.9 12.39 20.9 13.13C20.9 13.87 20.65 14.46 20.15 14.9C19.67 15.34 19.03 15.56 18.23 15.56ZM16.1 17H20.36V32H16.1V17Z" fill="black"/>
 <path d="M1.32 9.74H5.58V18.59C6.04 18.01 6.67 17.55 7.47 17.21C8.29 16.87 9.17 16.7 10.11 16.7C11.21 16.7 12.19 16.95 13.05 17.45C13.91 17.93 14.58 18.64 15.06 19.58C15.54 20.5 15.78 21.59 15.78 22.85V32H11.52V23.24C11.52 22.2 11.28 21.38 10.8 20.78C10.34 20.16 9.7 19.85 8.88 19.85C7.86 19.85 7.05 20.21 6.45 20.93C5.87 21.63 5.58 22.6 5.58 23.84V32H1.32V9.74Z" fill="black"/>
 <path d="M58.839 3.15412L61.0782 4.08626L52.5732 39.2292L50.4291 38L58.839 3.15412Z" fill="black"/>
</svg>
