<svg style="position: absolute; width: 0; height: 0; overflow: hidden;" version="1.1" xmlns="http://www.w3.org/2000/svg" xmlns:xlink="http://www.w3.org/1999/xlink">
 <defs>
 <symbol viewBox="0 0 71 41" id='logo'>
  <title>Logo</title>
  <path d="M59.5 20.66C59.5 18.96 59.47 17.74 59.41 17H63.46C63.54 17.78 63.58 18.66 63.58 19.64V19.94H63.7C64.08 18.96 64.76 18.18 65.74 17.6C66.74 17 67.88 16.7 69.16 16.7C69.42 16.7 69.73 16.73 70.09 16.79V20.12C70.05 20.1 69.85 20.09 69.49 20.09C68.47 20.09 67.52 20.35 66.64 20.87C65.76 21.39 65.06 22.08 64.54 22.94C64.02 23.8 63.76 24.73 63.76 25.73V32H59.5V20.66Z" fill="black"/>
  <path d="M36 10H40.26V18.85C40.72 18.27 41.35 17.81 42.15 17.47C42.97 17.13 43.85 16.96 44.79 16.96C45.89 16.96 46.87 17.21 47.73 17.71C48.59 18.19 49.26 18.9 49.74 19.84C50.22 20.76 50.46 21.85 50.46 23.11V32.26H46.2V23.5C46.2 22.46 45.96 21.64 45.48 21.04C45.02 20.42 44.38 20.11 43.56 20.11C42.54 20.11 41.73 20.47 41.13 21.19C40.55 21.89 40.26 22.86 40.26 24.1V32.26H36V10Z" fill="black"/>
  <path d="M35.45 18V32.37C35.45 34.93 34.8 36.86 33.5 38.16C32.22 39.48 30.31 40.14 27.77 40.14C26.55 40.14 25.41 39.99 24.35 39.69C23.29 39.41 22.36 39 21.56 38.46L22.97 35.61C23.67 35.97 24.43 36.26 25.25 36.48C26.09 36.7 26.86 36.81 27.56 36.81C28.84 36.81 29.79 36.39 30.41 35.55C31.03 34.73 31.34 33.48 31.34 31.8V31.59C30.5 32.55 29.18 33.03 27.38 33.03C25.26 33.03 23.62 32.37 22.46 31.05C21.32 29.71 20.75 27.8 20.75 25.32C20.75 22.88 21.3 21 22.4 19.68C23.5 18.36 25.05 17.7 27.05 17.7C29.11 17.7 30.61 18.4 31.55 19.8H31.61L31.88 18H35.45ZM31.19 24.6C31.19 23.36 30.94 22.43 30.44 21.81C29.94 21.17 29.2 20.85 28.22 20.85C27.16 20.85 26.35 21.24 25.79 22.02C25.25 22.78 24.98 23.91 24.98 25.41C24.98 28.33 26.05 29.79 28.19 29.79C29.17 29.79 29.91 29.5 30.41 28.92C30.93 28.34 31.19 27.5 31.19 26.4V24.6Z" fill="black"/>
  <path d="M18.23 15.56C17.43 15.56 16.78 15.34 16.28 14.9C15.8 14.46 15.56 13.87 15.56 13.13C15.56 12.39 15.8 11.8 16.28 11.36C16.78 10.92 17.43 10.7 18.23 10.7C19.03 10.7 19.67 10.92 20.15 11.36C20.65 11.8 20.9 12.39 20.9 13.13C20.9 13.87 20.65 14.46 20.15 14.9C19.67 15.34 19.03 15.56 18.23 15.56ZM16.1 17H20.36V32H16.1V17Z" fill="black"/>
  <path d="M1.32 9.74H5.58V18.59C6.04 18.01 6.67 17.55 7.47 17.21C8.29 16.87 9.17 16.7 10.11 16.7C11.21 16.7 12.19 16.95 13.05 17.45C13.91 17.93 14.58 18.64 15.06 19.58C15.54 20.5 15.78 21.59 15.78 22.85V32H11.52V23.24C11.52 22.2 11.28 21.38 10.8 20.78C10.34 20.16 9.7 19.85 8.88 19.85C7.86 19.85 7.05 20.21 6.45 20.93C5.87 21.63 5.58 22.6 5.58 23.84V32H1.32V9.74Z" fill="black"/>
  <path d="M58.839 3.15412L61.0782 4.08626L52.5732 39.2292L50.4291 38L58.839 3.15412Z" fill="black"/>
 </symbol>
 <symbol id="search" viewBox="0 0 26 28">
  <title>search</title>
  <path d="M18 13c0-3.859-3.141-7-7-7s-7 3.141-7 7 3.141 7 7 7 7-3.141 7-7zM26 26c0 1.094-0.906 2-2 2-0.531 0-1.047-0.219-1.406-0.594l-5.359-5.344c-1.828 1.266-4.016 1.937-6.234 1.937-6.078 0-11-4.922-11-11s4.922-11 11-11 11 4.922 11 11c0 2.219-0.672 4.406-1.937 6.234l5.359 5.359c0.359 0.359 0.578 0.875 0.578 1.406z"></path>
 </symbol>
 <symbol id="facebook" viewBox="0 0 32 32">
  <title>facebook</title>
  <path d="M19 6h5v-6h-5c-3.86 0-7 3.14-7 7v3h-4v6h4v16h6v-16h5l1-6h-6v-3c0-0.542 0.458-1 1-1z"></path>
 </symbol>
 <symbol id="instagram" viewBox="0 0 32 32">
  <title>instagram</title>
  <path d="M16 2.881c4.275 0 4.781 0.019 6.462 0.094 1.563 0.069 2.406 0.331 2.969 0.55 0.744 0.288 1.281 0.638 1.837 1.194 0.563 0.563 0.906 1.094 1.2 1.838 0.219 0.563 0.481 1.412 0.55 2.969 0.075 1.688 0.094 2.194 0.094 6.463s-0.019 4.781-0.094 6.463c-0.069 1.563-0.331 2.406-0.55 2.969-0.288 0.744-0.637 1.281-1.194 1.837-0.563 0.563-1.094 0.906-1.837 1.2-0.563 0.219-1.413 0.481-2.969 0.55-1.688 0.075-2.194 0.094-6.463 0.094s-4.781-0.019-6.463-0.094c-1.563-0.069-2.406-0.331-2.969-0.55-0.744-0.288-1.281-0.637-1.838-1.194-0.563-0.563-0.906-1.094-1.2-1.837-0.219-0.563-0.481-1.413-0.55-2.969-0.075-1.688-0.094-2.194-0.094-6.463s0.019-4.781 0.094-6.463c0.069-1.563 0.331-2.406 0.55-2.969 0.288-0.744 0.638-1.281 1.194-1.838 0.563-0.563 1.094-0.906 1.838-1.2 0.563-0.219 1.412-0.481 2.969-0.55 1.681-0.075 2.188-0.094 6.463-0.094zM16 0c-4.344 0-4.887 0.019-6.594 0.094-1.7 0.075-2.869 0.35-3.881 0.744-1.056 0.412-1.95 0.956-2.837 1.85-0.894 0.888-1.438 1.781-1.85 2.831-0.394 1.019-0.669 2.181-0.744 3.881-0.075 1.713-0.094 2.256-0.094 6.6s0.019 4.887 0.094 6.594c0.075 1.7 0.35 2.869 0.744 3.881 0.413 1.056 0.956 1.95 1.85 2.837 0.887 0.887 1.781 1.438 2.831 1.844 1.019 0.394 2.181 0.669 3.881 0.744 1.706 0.075 2.25 0.094 6.594 0.094s4.888-0.019 6.594-0.094c1.7-0.075 2.869-0.35 3.881-0.744 1.050-0.406 1.944-0.956 2.831-1.844s1.438-1.781 1.844-2.831c0.394-1.019 0.669-2.181 0.744-3.881 0.075-1.706 0.094-2.25 0.094-6.594s-0.019-4.887-0.094-6.594c-0.075-1.7-0.35-2.869-0.744-3.881-0.394-1.063-0.938-1.956-1.831-2.844-0.887-0.887-1.781-1.438-2.831-1.844-1.019-0.394-2.181-0.669-3.881-0.744-1.712-0.081-2.256-0.1-6.6-0.1v0z"></path>
  <path d="M16 7.781c-4.537 0-8.219 3.681-8.219 8.219s3.681 8.219 8.219 8.219 8.219-3.681 8.219-8.219c0-4.537-3.681-8.219-8.219-8.219zM16 21.331c-2.944 0-5.331-2.387-5.331-5.331s2.387-5.331 5.331-5.331c2.944 0 5.331 2.387 5.331 5.331s-2.387 5.331-5.331 5.331z"></path>
  <path d="M26.462 7.456c0 1.060-0.859 1.919-1.919 1.919s-1.919-0.859-1.919-1.919c0-1.060 0.859-1.919 1.919-1.919s1.919 0.859 1.919 1.919z"></path>
 </symbol>
 <symbol id="twitter" viewBox="0 0 32 32">
  <title>twitter</title>
  <path d="M32 7.075c-1.175 0.525-2.444 0.875-3.769 1.031 1.356-0.813 2.394-2.1 2.887-3.631-1.269 0.75-2.675 1.3-4.169 1.594-1.2-1.275-2.906-2.069-4.794-2.069-3.625 0-6.563 2.938-6.563 6.563 0 0.512 0.056 1.012 0.169 1.494-5.456-0.275-10.294-2.888-13.531-6.862-0.563 0.969-0.887 2.1-0.887 3.3 0 2.275 1.156 4.287 2.919 5.463-1.075-0.031-2.087-0.331-2.975-0.819 0 0.025 0 0.056 0 0.081 0 3.181 2.263 5.838 5.269 6.437-0.55 0.15-1.131 0.231-1.731 0.231-0.425 0-0.831-0.044-1.237-0.119 0.838 2.606 3.263 4.506 6.131 4.563-2.25 1.762-5.075 2.813-8.156 2.813-0.531 0-1.050-0.031-1.569-0.094 2.913 1.869 6.362 2.95 10.069 2.95 12.075 0 18.681-10.006 18.681-18.681 0-0.287-0.006-0.569-0.019-0.85 1.281-0.919 2.394-2.075 3.275-3.394z"></path>
 </symbol>

 </defs>
</svg>






